<?xml version="1.0" encoding="UTF-8"?>
<svg xmlns="http://www.w3.org/2000/svg" xmlns:xlink="http://www.w3.org/1999/xlink" width="29pt" height="29pt" viewBox="0 0 29 29" version="1.1">
<g id="surface1">
<rect x="0" y="0" width="29" height="29" style="fill:rgb(5.490196%,7.843137%,11.764706%);fill-opacity:1;stroke:none;"/>
<path style=" stroke:none;fill-rule:nonzero;fill:rgb(100%,100%,100%);fill-opacity:1;" d="M 14.203125 9.667969 L 12.023438 9.667969 C 11.949219 9.667969 11.890625 9.730469 11.890625 9.800781 L 11.890625 13.269531 L 9.539062 13.269531 L 9.539062 9.804688 C 9.539062 9.730469 9.476562 9.667969 9.40625 9.667969 L 7.222656 9.667969 C 7.148438 9.667969 7.089844 9.730469 7.089844 9.804688 L 7.089844 19.1875 C 7.089844 19.261719 7.148438 19.324219 7.222656 19.324219 L 9.40625 19.324219 C 9.476562 19.324219 9.539062 19.261719 9.539062 19.1875 L 9.539062 15.722656 L 11.890625 15.722656 L 11.890625 19.1875 C 11.890625 19.261719 11.949219 19.324219 12.023438 19.324219 L 14.203125 19.324219 C 14.277344 19.324219 14.339844 19.261719 14.339844 19.1875 L 14.339844 9.804688 C 14.339844 9.730469 14.277344 9.667969 14.203125 9.667969 Z M 14.203125 9.667969 "/>
<path style=" stroke:none;fill-rule:nonzero;fill:rgb(0%,91.764706%,39.215686%);fill-opacity:1;" d="M 22.628906 19.324219 L 15.644531 19.324219 C 15.574219 19.324219 15.511719 19.261719 15.511719 19.1875 L 15.511719 9.800781 C 15.511719 9.730469 15.574219 9.667969 15.644531 9.667969 L 22.628906 9.667969 C 22.703125 9.667969 22.761719 9.730469 22.761719 9.800781 L 22.761719 19.1875 C 22.761719 19.261719 22.703125 19.324219 22.628906 19.324219 Z M 22.628906 19.324219 "/>
</g>
</svg>
